<svg height="45" viewBox="0 0 45 45" width="45" xmlns="http://www.w3.org/2000/svg"><g fill="#9fafc9" fill-rule="evenodd" transform=""><path d="m22.5 45c-12.4264073 0-22.5-10.0735944-22.5-22.5 0-12.4264038 10.0735927-22.5 22.5-22.5 12.4264038 0 22.5 10.0735962 22.5 22.5 0 12.4264056-10.0735962 22.5-22.5 22.5zm0-3.4615385c10.5146481 0 19.0384615-8.52381 19.0384615-19.0384615 0-10.5146481-8.5238134-19.03846154-19.0384615-19.03846154-10.5146515 0-19.03846154 8.52381344-19.03846154 19.03846154 0 10.5146515 8.52381004 19.0384615 19.03846154 19.0384615z"/><path d="m12 20.4086242h8.3115789v-8.4086242h4.3768422v8.4086242h8.3115789v4.0965093h-8.3115789v8.4948665h-4.3768422v-8.4948665h-8.3115789z"/></g></svg>