<svg width="45px" height="45px" viewBox="0 0 45 45" version="1.1" xmlns="http://www.w3.org/2000/svg" xmlns:xlink="http://www.w3.org/1999/xlink">
    <!-- Generator: Sketch 50.2 (55047) - http://www.bohemiancoding.com/sketch -->
    <desc>Created with Sketch.</desc>
    <defs></defs>
    <g id="Page-1" stroke="none" stroke-width="1" fill="none" fill-rule="evenodd">
        <g id="Desktop" transform="translate(-89.000000, -895.000000)" fill="#9FAFC9">
            <g id="Group-6" transform="translate(89.000000, 895.000000)">
                <g id="Group-5">
                    <path d="M22.5,45 C10.0735927,45 0,34.9264056 0,22.5 C0,10.0735962 10.0735927,0 22.5,0 C34.9264038,0 45,10.0735962 45,22.5 C45,34.9264056 34.9264038,45 22.5,45 Z M22.5,41.5384615 C33.0146481,41.5384615 41.5384615,33.0146515 41.5384615,22.5 C41.5384615,11.9853519 33.0146481,3.46153846 22.5,3.46153846 C11.9853485,3.46153846 3.46153846,11.9853519 3.46153846,22.5 C3.46153846,33.0146515 11.9853485,41.5384615 22.5,41.5384615 Z" id="Fill-1"></path>
                    <polygon id="+" points="12 20.4086242 20.3115789 20.4086242 20.3115789 12 24.6884211 12 24.6884211 20.4086242 33 20.4086242 33 24.5051335 24.6884211 24.5051335 24.6884211 33 20.3115789 33 20.3115789 24.5051335 12 24.5051335"></polygon>
                </g>
            </g>
        </g>
    </g>
</svg>
