<svg height="16" viewBox="0 0 16 16" width="16" xmlns="http://www.w3.org/2000/svg"><path d="m.57142857 2.93877551h14.85714283c.3156072 0 .5714286-.29236735.5714286-.65306122v-1.63265307c0-.36069387-.2558214-.65306122-.5714286-.65306122h-14.85714283c-.31560714 0-.57142857.29236735-.57142857.65306122v1.63265307c0 .36069387.25582143.65306122.57142857.65306122zm0 6.53061225h14.85714283c.3156072 0 .5714286-.29236735.5714286-.65306123v-1.63265306c0-.36069388-.2558214-.65306123-.5714286-.65306123h-14.85714283c-.31560714 0-.57142857.29236735-.57142857.65306123v1.63265306c0 .36069388.25582143.65306123.57142857.65306123zm0 6.53061224h14.85714283c.3156072 0 .5714286-.2923673.5714286-.6530612v-1.6326531c0-.3606939-.2558214-.6530612-.5714286-.6530612h-14.85714283c-.31560714 0-.57142857.2923673-.57142857.6530612v1.6326531c0 .3606939.25582143.6530612.57142857.6530612z" fill="#fff"/></svg>