<svg height="46" viewBox="0 0 46 46" width="46" xmlns="http://www.w3.org/2000/svg"><path d="m44.307 22.61c-.738 0-1.383-.547-1.484-1.3-1.331-9.883-9.852-17.335-19.823-17.335s-18.492 7.452-19.822 17.335c-.109.82-.857 1.405-1.687 1.286-.821-.11-1.396-.865-1.286-1.687 1.528-11.364 11.328-19.934 22.795-19.934s21.268 8.57 22.795 19.935c.111.821-.465 1.576-1.285 1.687-.069.009-.137.013-.203.013zm1.488 4.48c.111-.82-.465-1.576-1.285-1.686-.828-.117-1.578.465-1.688 1.285-1.33 9.883-9.851 17.336-19.822 17.336s-18.492-7.453-19.822-17.336c-.109-.82-.857-1.404-1.687-1.285-.821.109-1.396.865-1.286 1.686 1.528 11.365 11.328 19.935 22.795 19.935s21.268-8.57 22.795-19.935zm-24.212 12.375c.154-.814-.381-1.6-1.194-1.754-6.593-1.248-11.378-7.014-11.378-13.711 0-6.696 4.785-12.463 11.378-13.712.813-.154 1.349-.938 1.194-1.753-.153-.814-.937-1.348-1.753-1.194-8.007 1.517-13.819 8.523-13.819 16.659s5.812 15.142 13.819 16.658c.095.018.188.027.281.027.707.001 1.337-.501 1.472-1.22zm4.587 1.193c8.006-1.515 13.818-8.521 13.818-16.658 0-8.136-5.812-15.142-13.818-16.658-.818-.153-1.6.38-1.754 1.194s.381 1.599 1.195 1.753c6.592 1.249 11.377 7.014 11.377 13.711 0 6.698-4.785 12.463-11.377 13.711-.814.154-1.35.938-1.195 1.752.137.721.766 1.221 1.473 1.221.091 0 .185-.008.281-.026zm5.041-18.144c.777-.291 1.17-1.155.879-1.931-1.416-3.774-5.068-6.31-9.09-6.31-4.021 0-7.674 2.535-9.089 6.31-.291.775.102 1.64.878 1.931.772.293 1.64-.102 1.931-.878.979-2.609 3.502-4.362 6.28-4.362s5.303 1.753 6.282 4.362c.225.603.797.974 1.404.974.173 0 .353-.03.525-.096zm.879 4.902c.291-.775-.104-1.641-.879-1.932-.779-.293-1.641.104-1.93.879-.979 2.609-3.502 4.361-6.282 4.361-2.778 0-5.303-1.752-6.28-4.361-.29-.775-1.152-1.17-1.931-.879-.775.291-1.169 1.156-.878 1.932 1.414 3.773 5.066 6.309 9.089 6.309 4.024 0 7.677-2.536 9.091-6.309z" fill="#142b6f" transform="translate(0 -1)"/></svg>