<svg width="46px" height="46px" viewBox="0 0 46 46" version="1.1" xmlns="http://www.w3.org/2000/svg" xmlns:xlink="http://www.w3.org/1999/xlink">
    <!-- Generator: Sketch 50.2 (55047) - http://www.bohemiancoding.com/sketch -->
    <desc>Created with Sketch.</desc>
    <defs></defs>
    <g id="Page-1" stroke="none" stroke-width="1" fill="none" fill-rule="evenodd">
        <g id="Desktop" transform="translate(-835.000000, -585.000000)" fill="#142B6F" fill-rule="nonzero">
            <g id="Group-4" transform="translate(442.000000, 584.000000)">
                <g id="Group" transform="translate(348.000000, 0.000000)">
                    <g id="icon-brain" transform="translate(45.000000, 0.000000)">
                        <path d="M44.307,22.61 C43.569,22.61 42.924,22.063 42.823,21.31 C41.492,11.427 32.971,3.975 23,3.975 C13.029,3.975 4.508,11.427 3.178,21.31 C3.069,22.13 2.321,22.715 1.491,22.596 C0.67,22.486 0.095,21.731 0.205,20.909 C1.733,9.545 11.533,0.975 23,0.975 C34.467,0.975 44.268,9.545 45.795,20.91 C45.906,21.731 45.33,22.486 44.51,22.597 C44.441,22.606 44.373,22.61 44.307,22.61 Z M45.795,27.09 C45.906,26.27 45.33,25.514 44.51,25.404 C43.682,25.287 42.932,25.869 42.822,26.689 C41.492,36.572 32.971,44.025 23,44.025 C13.029,44.025 4.508,36.572 3.178,26.689 C3.069,25.869 2.321,25.285 1.491,25.404 C0.67,25.513 0.095,26.269 0.205,27.09 C1.733,38.455 11.533,47.025 23,47.025 C34.467,47.025 44.268,38.455 45.795,27.09 Z M21.583,39.465 C21.737,38.651 21.202,37.865 20.389,37.711 C13.796,36.463 9.011,30.697 9.011,24 C9.011,17.304 13.796,11.537 20.389,10.288 C21.202,10.134 21.738,9.35 21.583,8.535 C21.43,7.721 20.646,7.187 19.83,7.341 C11.823,8.858 6.011,15.864 6.011,24 C6.011,32.136 11.823,39.142 19.83,40.658 C19.925,40.676 20.018,40.685 20.111,40.685 C20.818,40.686 21.448,40.184 21.583,39.465 Z M26.17,40.658 C34.176,39.143 39.988,32.137 39.988,24 C39.988,15.864 34.176,8.858 26.17,7.342 C25.352,7.189 24.57,7.722 24.416,8.536 C24.262,9.35 24.797,10.135 25.611,10.289 C32.203,11.538 36.988,17.303 36.988,24 C36.988,30.698 32.203,36.463 25.611,37.711 C24.797,37.865 24.261,38.649 24.416,39.463 C24.553,40.184 25.182,40.684 25.889,40.684 C25.98,40.684 26.074,40.676 26.17,40.658 Z M31.211,22.514 C31.988,22.223 32.381,21.359 32.09,20.583 C30.674,16.809 27.022,14.273 23,14.273 C18.979,14.273 15.326,16.808 13.911,20.583 C13.62,21.358 14.013,22.223 14.789,22.514 C15.561,22.807 16.429,22.412 16.72,21.636 C17.699,19.027 20.222,17.274 23,17.274 C25.778,17.274 28.303,19.027 29.282,21.636 C29.507,22.239 30.079,22.61 30.686,22.61 C30.859,22.61 31.039,22.58 31.211,22.514 Z M32.09,27.416 C32.381,26.641 31.986,25.775 31.211,25.484 C30.432,25.191 29.57,25.588 29.281,26.363 C28.302,28.972 25.779,30.724 22.999,30.724 C20.221,30.724 17.696,28.972 16.719,26.363 C16.429,25.588 15.567,25.193 14.788,25.484 C14.013,25.775 13.619,26.64 13.91,27.416 C15.324,31.189 18.976,33.725 22.999,33.725 C27.023,33.725 30.676,31.189 32.09,27.416 Z" id="Shape"></path>
                    </g>
                </g>
            </g>
        </g>
    </g>
</svg>
