<svg height="48" viewBox="0 0 24 48" width="24" xmlns="http://www.w3.org/2000/svg"><path d="m.449 21.882c.735-4.361 4.422-7.874 10.381-9.89 10.27-3.475 8.909-9.465 8.893-9.525-.199-.804.289-1.618 1.094-1.817.799-.208 1.617.288 1.816 1.093.09.354 2.018 8.741-10.842 13.092-4.793 1.622-7.849 4.372-8.384 7.547-.165.979-.067 1.987.239 2.994h11.854c.828 0 1.5.672 1.5 1.5s-.672 1.5-1.5 1.5h-10.251c.707.918 1.582 1.809 2.651 2.639.654.508.772 1.451.265 2.105-.296.381-.738.58-1.186.58-.321 0-.646-.104-.919-.316-4.243-3.296-6.288-7.488-5.611-11.502zm12.721 14.128c5.959-2.016 9.646-5.527 10.383-9.891.676-4.013-1.369-8.205-5.613-11.5-.654-.509-1.596-.39-2.104.265s-.391 1.597.264 2.104c1.07.831 1.943 1.721 2.65 2.638h-10.815c-.828 0-1.5.672-1.5 1.5s.672 1.5 1.5 1.5h12.418c.307 1.007.404 2.016.24 2.995-.535 3.174-3.592 5.926-8.384 7.547-12.859 4.352-10.931 12.738-10.843 13.092.17.684.782 1.139 1.455 1.139.12 0 .242-.014.363-.045.804-.199 1.293-1.014 1.094-1.818-.016-.061-1.378-6.052 8.892-9.526zm-8.762-24.197c.283.241.629.359.974.359.424 0 .845-.179 1.142-.525.538-.63.464-1.577-.166-2.115-.943-.806-1.671-1.794-2.191-2.925h11.333c.828 0 1.5-.672 1.5-1.5s-.672-1.5-1.5-1.5h-12.163c-.059-.486-.1-.983-.1-1.502 0-.828-.672-1.5-1.5-1.5s-1.5.672-1.5 1.5c.001 4.02 1.443 7.378 4.171 9.708zm15.186 24.376c-.631-.539-1.578-.463-2.115.166-.539.629-.465 1.576.166 2.113.941.807 1.67 1.797 2.189 2.928h-11.078c-.828 0-1.5.672-1.5 1.5s.672 1.5 1.5 1.5h11.906c.059.486.1.982.1 1.502 0 .828.672 1.5 1.5 1.5s1.5-.672 1.5-1.5c0-4.019-1.442-7.377-4.168-9.709z" fill="#142b6f" transform=""/></svg>