<svg width="50px" height="40px" viewBox="0 0 50 40" version="1.1" xmlns="http://www.w3.org/2000/svg" xmlns:xlink="http://www.w3.org/1999/xlink">
    <!-- Generator: Sketch 50.2 (55047) - http://www.bohemiancoding.com/sketch -->
    <desc>Created with Sketch.</desc>
    <defs></defs>
    <g id="Page-1" stroke="none" stroke-width="1" fill="none" fill-rule="evenodd">
        <g id="Desktop" transform="translate(-484.000000, -588.000000)" fill="#142B6F" fill-rule="nonzero">
            <g id="Group-4" transform="translate(441.000000, 584.000000)">
                <g id="Group-3" transform="translate(0.000000, 4.000000)">
                    <g id="icon-mood" transform="translate(43.000000, 0.000000)">
                        <path d="M30.066,0.428 C28.31,0.428 26.619,0.682 25,1.116 C23.381,0.681 21.688,0.428 19.934,0.428 C9.142,0.428 0.362,9.208 0.362,20 C0.362,30.792 9.142,39.572 19.934,39.572 C21.688,39.572 23.381,39.318 25,38.884 C26.619,39.319 28.31,39.572 30.066,39.572 C40.857,39.572 49.638,30.792 49.638,20 C49.638,9.208 40.857,0.428 30.066,0.428 Z M25,35.773 C18.334,33.627 13.495,27.371 13.495,20 C13.495,12.629 18.334,6.373 25,4.227 C31.666,6.373 36.506,12.629 36.506,20 C36.506,27.371 31.666,33.627 25,35.773 Z M3.362,20 C3.362,10.947 10.661,3.578 19.68,3.44 C14.173,6.907 10.495,13.025 10.495,20 C10.495,26.975 14.174,33.093 19.681,36.56 C10.661,36.422 3.362,29.053 3.362,20 Z M30.32,36.56 C35.828,33.092 39.506,26.975 39.506,20 C39.506,13.025 35.828,6.908 30.32,3.44 C39.34,3.578 46.639,10.948 46.639,20 C46.639,29.052 39.34,36.422 30.32,36.56 Z" id="Shape"></path>
                    </g>
                </g>
            </g>
        </g>
    </g>
</svg>
