<svg height="40" viewBox="0 0 50 40" width="50" xmlns="http://www.w3.org/2000/svg"><path d="m30.066.428c-1.756 0-3.447.254-5.066.688-1.619-.435-3.312-.688-5.066-.688-10.792 0-19.572 8.78-19.572 19.572s8.78 19.572 19.572 19.572c1.754 0 3.447-.254 5.066-.688 1.619.435 3.31.688 5.066.688 10.791 0 19.572-8.78 19.572-19.572s-8.781-19.572-19.572-19.572zm-5.066 35.345c-6.666-2.146-11.505-8.402-11.505-15.773s4.839-13.627 11.505-15.773c6.666 2.146 11.506 8.402 11.506 15.773s-4.84 13.627-11.506 15.773zm-21.638-15.773c0-9.053 7.299-16.422 16.318-16.56-5.507 3.467-9.185 9.585-9.185 16.56s3.679 13.093 9.186 16.56c-9.02-.138-16.319-7.507-16.319-16.56zm26.958 16.56c5.508-3.468 9.186-9.585 9.186-16.56s-3.678-13.092-9.186-16.56c9.02.138 16.319 7.508 16.319 16.56s-7.299 16.422-16.319 16.56z" fill="#142b6f" transform=""/></svg>